<?xml version="1.0" encoding="UTF-8"?>
<svg width="34px" height="34px" viewBox="0 0 34 34" version="1.1" xmlns="http://www.w3.org/2000/svg" xmlns:xlink="http://www.w3.org/1999/xlink">
    <!-- Generator: Sketch 46.2 (44496) - http://www.bohemiancoding.com/sketch -->
    <title>if_twitter_circle_gray_107135 (1)</title>
    <desc>Created with Sketch.</desc>
    <defs></defs>
    <g id="Page-1" stroke="none" stroke-width="1" fill="none" fill-rule="evenodd">
        <g id="Desktop-HD" transform="translate(-422.000000, -1482.000000)" fill="#D8D9D8">
            <g id="if_twitter_circle_gray_107135-(1)" transform="translate(422.000000, 1482.000000)">
                <path d="M19.3613,10.3603667 C17.8772,10.9004 16.9393667,12.2932667 17.0459,13.8176 L17.0816,14.4058 L16.4877333,14.3338333 C14.3270333,14.0578667 12.4389,13.1217333 10.8358,11.5486667 L10.0521,10.7683667 L9.85036667,11.3446667 C9.4231,12.6293 9.69623333,13.9859 10.5864667,14.8982333 C11.0613333,15.4025667 10.9542333,15.4745333 10.1354,15.1742 C9.85036667,15.0784333 9.60103333,15.0064667 9.57723333,15.0421667 C9.4945,15.1266 9.77896667,16.2185667 10.0045,16.6509333 C10.3133333,17.2516 10.9423333,17.8392333 11.6314,18.1877333 L12.2133667,18.4637 L11.5248667,18.4756 C10.8601667,18.4756 10.8363667,18.4875 10.9077667,18.7402333 C11.1452,19.5205333 12.0830333,20.349 13.1279667,20.7094 L13.8640667,20.961 L13.2231667,21.3452 C12.2734333,21.8982667 11.1571,22.2099333 10.0407667,22.2337333 C9.50583333,22.2450667 9.06666667,22.2932333 9.06666667,22.3295 C9.06666667,22.4490667 10.5156333,23.1211333 11.3582667,23.3857667 C13.8873,24.1660667 16.8917667,23.8294667 19.1476667,22.4972333 C20.7507667,21.5492 22.3533,19.6639 23.1018667,17.8386667 C23.5059,16.8662667 23.9093667,15.0897667 23.9093667,14.2380667 C23.9093667,13.6855667 23.9450667,13.6136 24.6097667,12.9534333 C25.0019,12.5692333 25.3696667,12.1493333 25.4410667,12.0292 C25.5600667,11.8008333 25.5476,11.8008333 24.9424,12.0048333 C23.9331667,12.3652333 23.7903667,12.3170667 24.2896,11.7770333 C24.6573667,11.3928333 25.0971,10.6964 25.0971,10.4924 C25.0971,10.4567 24.9191667,10.5162 24.7168667,10.6244333 C24.5032333,10.7445667 24.0283667,10.9247667 23.6719333,11.0324333 L23.0310333,11.237 L22.4490667,10.8403333 C22.1283333,10.6244333 21.6778333,10.3841667 21.4398333,10.3122 C20.8340667,10.1444667 19.9075667,10.1682667 19.3613,10.3603667 Z M17,34 C7.61146667,34 0,26.3891 0,17 C0,7.6109 7.61146667,0 17,0 C26.3885333,0 34,7.6109 34,17 C34,26.3891 26.3885333,34 17,34 Z" id="Shape"></path>
            </g>
        </g>
    </g>
</svg>