<?xml version="1.0" encoding="UTF-8"?>
<svg width="13px" height="8px" viewBox="0 0 13 8" version="1.1" xmlns="http://www.w3.org/2000/svg" xmlns:xlink="http://www.w3.org/1999/xlink">
    <!-- Generator: Sketch 46.2 (44496) - http://www.bohemiancoding.com/sketch -->
    <title>if_icon-chevron-down_211645</title>
    <desc>Created with Sketch.</desc>
    <defs></defs>
    <g id="Page-1" stroke="none" stroke-width="1" fill="none" fill-rule="evenodd">
        <g id="Mobile" transform="translate(-283.000000, -476.000000)" fill-rule="nonzero" fill="#000000">
            <g id="if_icon-chevron-down_211645" transform="translate(283.000000, 476.000000)">
                <path d="M6.5,5.321875 L6.5,5.321875 L6.5,5.321875 L11.5549107,0.096875 C11.6796875,-0.034375 11.8857143,-0.03125 12.0133929,0.103125 L12.9013393,1.0375 C13.0290179,1.171875 13.0319196,1.390625 12.9071429,1.521875 L6.73504464,7.903125 C6.67120536,7.971875 6.58415179,8.003125 6.5,7.996875 C6.41294643,8 6.32879464,7.96875 6.26495536,7.903125 L0.0928571429,1.521875 C-0.0319196429,1.390625 -0.0290178571,1.171875 0.0986607143,1.0375 L0.986607143,0.103125 C1.11428571,-0.03125 1.3203125,-0.034375 1.44508929,0.096875 L6.5,5.321875 Z" id="Shape"></path>
            </g>
        </g>
    </g>
</svg>