<?xml version="1.0" encoding="UTF-8"?>
<svg width="34px" height="34px" viewBox="0 0 34 34" version="1.1" xmlns="http://www.w3.org/2000/svg" xmlns:xlink="http://www.w3.org/1999/xlink">
    <!-- Generator: Sketch 46.2 (44496) - http://www.bohemiancoding.com/sketch -->
    <title>if_linkedin_circle_gray_107149</title>
    <desc>Created with Sketch.</desc>
    <defs></defs>
    <g id="Page-1" stroke="none" stroke-width="1" fill="none" fill-rule="evenodd">
        <g id="Desktop-HD" transform="translate(-376.000000, -1482.000000)" fill="#D8D9D8">
            <g id="if_linkedin_circle_gray_107149" transform="translate(376.000000, 1482.000000)">
                <path d="M26.5409667,25.0109667 L26.5409667,18.3741667 C26.5409667,14.8183333 24.6426333,13.1636667 22.1119,13.1636667 C20.0696333,13.1636667 19.1544667,14.2873667 18.6444667,15.0756 L18.6444667,13.4356667 L14.7968,13.4356667 C14.8478,14.5219667 14.7968,25.0109667 14.7968,25.0109667 L18.6444667,25.0109667 L18.6444667,18.5464333 C18.6444667,18.2013333 18.6694,17.8556667 18.7714,17.6086 C19.0490667,16.9172667 19.6820333,16.2015667 20.7445333,16.2015667 C22.1374,16.2015667 22.6938667,17.2629333 22.6938667,18.8184333 L22.6938667,25.0115333 L26.5409667,25.0115333 L26.5409667,25.0109667 Z M10.7434333,11.8558 C12.0847333,11.8558 12.9205667,10.9661333 12.9205667,9.8549 C12.8956333,8.71986667 12.0847333,7.8557 10.7689333,7.8557 C9.45313333,7.8557 8.59236667,8.7193 8.59236667,9.8549 C8.59236667,10.9661333 9.42763333,11.8558 10.7190667,11.8558 L10.7434333,11.8558 Z M17,34 C7.61146667,34 0,26.3885333 0,17 C0,7.6109 7.61146667,0 17,0 C26.3885333,0 34,7.6109 34,17 C34,26.3885333 26.3885333,34 17,34 Z M12.6672667,25.0109667 L12.6672667,13.4356667 L8.82016667,13.4356667 L8.82016667,25.0109667 L12.6672667,25.0109667 Z" id="Shape"></path>
            </g>
        </g>
    </g>
</svg>